<mxfile host="drawio-plugin" modified="2024-04-04T14:56:04.002Z" agent="5.0 (X11; Linux x86_64) AppleWebKit/537.36 (KHTML, like Gecko) Chrome/122.0.0.0 Safari/537.36" version="20.5.3" etag="0j-wqYZVPQ_nHPvJ7tAr" type="embed"><diagram id="NW48h4P3TLna2ieKzB0X" name="Page-1"><mxGraphModel dx="946" dy="773" grid="1" gridSize="10" guides="1" tooltips="1" connect="1" arrows="1" fold="1" page="1" pageScale="1" pageWidth="850" pageHeight="1100" math="0" shadow="0"><root><mxCell id="0"/><mxCell id="1" parent="0"/><mxCell id="6" value="" style="edgeStyle=orthogonalEdgeStyle;rounded=0;orthogonalLoop=1;jettySize=auto;html=1;" edge="1" parent="1" source="2" target="5"><mxGeometry relative="1" as="geometry"/></mxCell><mxCell id="9" style="edgeStyle=orthogonalEdgeStyle;rounded=0;orthogonalLoop=1;jettySize=auto;html=1;entryX=0;entryY=0.5;entryDx=0;entryDy=0;" edge="1" parent="1" source="2" target="7"><mxGeometry relative="1" as="geometry"><mxPoint x="325" y="335" as="targetPoint"/><Array as="points"><mxPoint x="340" y="320"/></Array></mxGeometry></mxCell><mxCell id="2" value="Spring Security&lt;br&gt;(Fitlers)&lt;br&gt;Token Service" style="rounded=0;whiteSpace=wrap;html=1;direction=south;" vertex="1" parent="1"><mxGeometry x="140" y="280" width="90" height="110" as="geometry"/></mxCell><mxCell id="3" value="Request" style="text;html=1;strokeColor=none;fillColor=none;align=center;verticalAlign=middle;whiteSpace=wrap;rounded=0;" vertex="1" parent="1"><mxGeometry x="20" y="290" width="60" height="30" as="geometry"/></mxCell><mxCell id="4" value="Response" style="text;html=1;strokeColor=none;fillColor=none;align=center;verticalAlign=middle;whiteSpace=wrap;rounded=0;" vertex="1" parent="1"><mxGeometry x="20" y="340" width="60" height="30" as="geometry"/></mxCell><mxCell id="5" value="Security Context" style="rounded=0;whiteSpace=wrap;html=1;" vertex="1" parent="1"><mxGeometry x="125" y="500" width="120" height="60" as="geometry"/></mxCell><mxCell id="11" style="edgeStyle=orthogonalEdgeStyle;rounded=0;orthogonalLoop=1;jettySize=auto;html=1;entryX=0.083;entryY=0.583;entryDx=0;entryDy=0;entryPerimeter=0;" edge="1" parent="1" source="7" target="10"><mxGeometry relative="1" as="geometry"/></mxCell><mxCell id="7" value="Authentication" style="rounded=0;whiteSpace=wrap;html=1;" vertex="1" parent="1"><mxGeometry x="340" y="280" width="120" height="70" as="geometry"/></mxCell><mxCell id="15" style="edgeStyle=orthogonalEdgeStyle;rounded=0;orthogonalLoop=1;jettySize=auto;html=1;" edge="1" parent="1" source="10" target="12"><mxGeometry relative="1" as="geometry"/></mxCell><mxCell id="10" value="Authentication Manager&lt;br&gt;Provider Manager" style="rounded=0;whiteSpace=wrap;html=1;" vertex="1" parent="1"><mxGeometry x="530" y="280" width="120" height="60" as="geometry"/></mxCell><mxCell id="14" style="edgeStyle=orthogonalEdgeStyle;rounded=0;orthogonalLoop=1;jettySize=auto;html=1;exitX=0.5;exitY=1;exitDx=0;exitDy=0;" edge="1" parent="1" source="12" target="10"><mxGeometry relative="1" as="geometry"/></mxCell><mxCell id="16" style="edgeStyle=orthogonalEdgeStyle;rounded=0;orthogonalLoop=1;jettySize=auto;html=1;" edge="1" parent="1" source="12" target="13"><mxGeometry relative="1" as="geometry"/></mxCell><mxCell id="18" style="edgeStyle=orthogonalEdgeStyle;rounded=0;orthogonalLoop=1;jettySize=auto;html=1;entryX=0.425;entryY=0;entryDx=0;entryDy=0;entryPerimeter=0;" edge="1" parent="1" source="12" target="17"><mxGeometry relative="1" as="geometry"><Array as="points"><mxPoint x="800" y="433"/><mxPoint x="891" y="433"/></Array></mxGeometry></mxCell><mxCell id="12" value="Jwt Authen Provider" style="rounded=0;whiteSpace=wrap;html=1;direction=south;" vertex="1" parent="1"><mxGeometry x="720" y="245" width="120" height="120" as="geometry"/></mxCell><mxCell id="13" value="User Details Service" style="rounded=0;whiteSpace=wrap;html=1;" vertex="1" parent="1"><mxGeometry x="660" y="500" width="120" height="60" as="geometry"/></mxCell><mxCell id="17" value="Password Encoder" style="rounded=0;whiteSpace=wrap;html=1;" vertex="1" parent="1"><mxGeometry x="840" y="500" width="120" height="60" as="geometry"/></mxCell></root></mxGraphModel></diagram></mxfile>